P3
2 2
255
113 171 216 140 192 234 
113 171 216 172 218 250 
